solid arm_link
  facet normal 0 0 0
    outer loop
      vertex 0.5 0 -0.5
      vertex 0.25 0.433 -0.5
      vertex 0.25 0.433 0.5
    endloop
  endfacet
  facet normal 0 0 0
    outer loop
      vertex 0.5 0 -0.5
      vertex 0.25 0.433 0.5
      vertex 0.5 0 0.5
    endloop
  endfacet
  facet normal 0 0 0
    outer loop
      vertex 0.25 0.433 -0.5
      vertex -0.25 0.433 -0.5
      vertex -0.25 0.433 0.5
    endloop
  endfacet
  facet normal 0 0 0
    outer loop
      vertex 0.25 0.433 -0.5
      vertex -0.25 0.433 0.5
      vertex 0.25 0.433 0.5
    endloop
  endfacet
  facet normal 0 0 0
    outer loop
      vertex -0.25 0.433 -0.5
      vertex -0.5 0 -0.5
      vertex -0.5 0 0.5
    endloop
  endfacet
  facet normal 0 0 0
    outer loop
      vertex -0.25 0.433 -0.5
      vertex -0.5 0 0.5
      vertex -0.25 0.433 0.5
    endloop
  endfacet
  facet normal 0 0 0
    outer loop
      vertex -0.5 0 -0.5
      vertex -0.25 -0.433 -0.5
      vertex -0.25 -0.433 0.5
    endloop
  endfacet
  facet normal 0 0 0
    outer loop
      vertex -0.5 0 -0.5
      vertex -0.25 -0.433 0.5
      vertex -0.5 0 0.5
    endloop
  endfacet
  facet normal 0 0 0
    outer loop
      vertex -0.25 -0.433 -0.5
      vertex 0.25 -0.433 -0.5
      vertex 0.25 -0.433 0.5
    endloop
  endfacet
  facet normal 0 0 0
    outer loop
      vertex -0.25 -0.433 -0.5
      vertex 0.25 -0.433 0.5
      vertex -0.25 -0.433 0.5
    endloop
  endfacet
  facet normal 0 0 0
    outer loop
      vertex 0.25 -0.433 -0.5
      vertex 0.5 0 -0.5
      vertex 0.5 0 0.5
    endloop
  endfacet
  facet normal 0 0 0
    outer loop
      vertex 0.25 -0.433 -0.5
      vertex 0.5 0 0.5
      vertex 0.25 -0.433 0.5
    endloop
  endfacet
  facet normal 0 0 -1
    outer loop
      vertex 0 0 -0.5
      vertex 0.25 0.433 -0.5
      vertex 0.5 0 -0.5
    endloop
  endfacet
  facet normal 0 0 -1
    outer loop
      vertex 0 0 -0.5
      vertex -0.25 0.433 -0.5
      vertex 0.25 0.433 -0.5
    endloop
  endfacet
  facet normal 0 0 -1
    outer loop
      vertex 0 0 -0.5
      vertex -0.5 0 -0.5
      vertex -0.25 0.433 -0.5
    endloop
  endfacet
  facet normal 0 0 -1
    outer loop
      vertex 0 0 -0.5
      vertex -0.25 -0.433 -0.5
      vertex -0.5 0 -0.5
    endloop
  endfacet
  facet normal 0 0 -1
    outer loop
      vertex 0 0 -0.5
      vertex 0.25 -0.433 -0.5
      vertex -0.25 -0.433 -0.5
    endloop
  endfacet
  facet normal 0 0 -1
    outer loop
      vertex 0 0 -0.5
      vertex 0.5 0 -0.5
      vertex 0.25 -0.433 -0.5
    endloop
  endfacet
  facet normal 0 0 1
    outer loop
      vertex 0 0 0.5
      vertex 0.5 0 0.5
      vertex 0.25 0.433 0.5
    endloop
  endfacet
  facet normal 0 0 1
    outer loop
      vertex 0 0 0.5
      vertex 0.25 0.433 0.5
      vertex -0.25 0.433 0.5
    endloop
  endfacet
  facet normal 0 0 1
    outer loop
      vertex 0 0 0.5
      vertex -0.25 0.433 0.5
      vertex -0.5 0 0.5
    endloop
  endfacet
  facet normal 0 0 1
    outer loop
      vertex 0 0 0.5
      vertex -0.5 0 0.5
      vertex -0.25 -0.433 0.5
    endloop
  endfacet
  facet normal 0 0 1
    outer loop
      vertex 0 0 0.5
      vertex -0.25 -0.433 0.5
      vertex 0.25 -0.433 0.5
    endloop
  endfacet
  facet normal 0 0 1
    outer loop
      vertex 0 0 0.5
      vertex 0.25 -0.433 0.5
      vertex 0.5 0 0.5
    endloop
  endfacet
endsolid arm_link
